<?xml version="1.0" encoding="iso-8859-1"?>
<!-- Generator: Adobe Illustrator 19.0.0, SVG Export Plug-In . SVG Version: 6.00 Build 0)  -->
<svg version="1.1" id="Layer_1" xmlns="http://www.w3.org/2000/svg" xmlns:xlink="http://www.w3.org/1999/xlink" x="0px" y="0px"
	 viewBox="0 0 512 512" style="enable-background:new 0 0 512 512;" xml:space="preserve">
<g>
	<g>
		<path d="M310.375,329.814h-33.212c-9.477,0-17.161,7.683-17.161,17.161c0,1.587,0.232,3.116,0.636,4.575h66.262
			c0.403-1.459,0.636-2.988,0.636-4.575C327.536,337.497,319.853,329.814,310.375,329.814z"/>
	</g>
</g>
<g>
	<g>
		<path d="M411.052,329.814H377.84c-9.477,0-17.161,7.683-17.161,17.161c0,1.587,0.232,3.116,0.636,4.575h66.262
			c0.403-1.459,0.636-2.988,0.636-4.575C428.213,337.497,420.529,329.814,411.052,329.814z"/>
	</g>
</g>
<g>
	<g>
		<path d="M194.791,294.351h-15.442v-8.606c0-6.317-5.123-11.44-11.44-11.44s-11.44,5.123-11.44,11.44v8.606h-22.881v-8.606
			c0-6.317-5.123-11.44-11.44-11.44s-11.44,5.123-11.44,11.44v8.606H95.263c-6.317,0-11.44,5.123-11.44,11.44v45.759h122.409
			v-45.759C206.231,299.473,201.11,294.351,194.791,294.351z"/>
	</g>
</g>
<g>
	<g>
		<path d="M475.083,374.43h-43.988v0.001c0.009,0.191,0.029,0.379,0.029,0.571V512h29.045c9.477,0,17.161-7.683,17.161-17.161
			V374.207C476.604,374.352,475.852,374.43,475.083,374.43z"/>
	</g>
</g>
<g>
	<g>
		<path d="M179.56,374.431c0.009,0.191,0.029,0.379,0.029,0.571V512h60.964V375.002c0-0.192,0.019-0.381,0.029-0.571H179.56z"/>
	</g>
</g>
<g>
	<g>
		<path d="M27.271,374.431c-0.207,0-0.408-0.021-0.613-0.031v120.439c0,9.477,7.683,17.161,17.161,17.161h29.044V375.002
			c0-0.192,0.019-0.381,0.029-0.571H27.271z"/>
	</g>
</g>
<g>
	<g>
		<path d="M263.405,374.431c0.009,0.191,0.029,0.379,0.029,0.571V512h60.964V375.002c0-0.192,0.019-0.381,0.029-0.571H263.405z"/>
	</g>
</g>
<g>
	<g>
		<path d="M347.252,374.431c0.009,0.191,0.029,0.379,0.029,0.571V512h60.964V375.002h0c0-0.192,0.019-0.381,0.029-0.571H347.252z"/>
	</g>
</g>
<g>
	<g>
		<path d="M95.715,374.431c0.009,0.191,0.029,0.379,0.029,0.571V512h60.964V375.002c0-0.192,0.019-0.381,0.029-0.571H95.715z"/>
	</g>
</g>
<g>
	<g>
		<path d="M492.878,151.245h-23.328L261.958,3.189c-5.962-4.252-13.968-4.252-19.929,0L34.437,151.245H19.119
			c-9.477,0-17.161,7.683-17.161,17.161c0,9.477,7.683,17.161,17.161,17.161h7.539v166.014c0.205-0.011,0.406-0.031,0.613-0.031
			h33.708V199.506c6.856,4.966,15.279,7.903,24.395,7.903c15.83,0,29.585-8.837,36.631-21.842h10.049
			c7.045,13.004,20.8,21.842,36.63,21.842s29.585-8.837,36.631-21.842h10.049c7.045,13.004,20.8,21.842,36.63,21.842
			s29.585-8.837,36.631-21.842h10.049c7.045,13.004,20.8,21.842,36.63,21.842c15.83,0,29.585-8.837,36.631-21.842h10.049
			c7.045,13.004,20.8,21.842,36.63,21.842c9.115,0,17.538-2.936,24.395-7.903V351.55h32.075c0.769,0,1.52,0.079,2.247,0.223V185.567
			h15.548c9.477,0,17.161-7.683,17.161-17.161C510.042,158.929,502.355,151.245,492.878,151.245z"/>
	</g>
</g>
<g>
</g>
<g>
</g>
<g>
</g>
<g>
</g>
<g>
</g>
<g>
</g>
<g>
</g>
<g>
</g>
<g>
</g>
<g>
</g>
<g>
</g>
<g>
</g>
<g>
</g>
<g>
</g>
<g>
</g>
</svg>
