<?xml version="1.0" encoding="iso-8859-1"?>
<!-- Generator: Adobe Illustrator 18.0.0, SVG Export Plug-In . SVG Version: 6.00 Build 0)  -->
<!DOCTYPE svg PUBLIC "-//W3C//DTD SVG 1.1//EN" "http://www.w3.org/Graphics/SVG/1.1/DTD/svg11.dtd">
<svg version="1.1" id="Capa_1" xmlns="http://www.w3.org/2000/svg" xmlns:xlink="http://www.w3.org/1999/xlink" x="0px" y="0px"
	 viewBox="0 0 459.756 459.756" style="enable-background:new 0 0 459.756 459.756;" xml:space="preserve">
<g id="XMLID_23_">
	<circle id="XMLID_71_" cx="318.643" cy="48.092" r="48.079"/>
	<path id="XMLID_505_" d="M366.478,243.35c2.359-12.106,21.335-109.465,23.663-121.411c2.302-11.808-5.405-23.246-17.213-25.549
		c-11.811-2.299-23.247,5.406-25.548,17.214c-1.566,8.036-12.522,64.247-14.204,72.875l-43.724-59.048l30.299,22.605
		c5.424-18.933-5.623-36.12-22.086-40.837c-22.401-6.418-46.465-3.191-66.384,8.901c-19.919,12.093-33.885,31.953-38.528,54.788
		l-13.784,67.801c-3.434,16.892,0.901,34.434,11.808,47.782c10.414,12.744,25.77,20.361,42.14,21.025
		c4.528,1.022-1.023,0.668,86.126,0.413l-45.143,114.079c-5.312,13.424,1.264,28.612,14.687,33.924
		c13.428,5.312,28.614-1.268,33.924-14.687l59.337-149.95c3.19-8.062,2.175-17.181-2.709-24.345
		c-4.871-7.143-12.955-11.413-21.597-11.413c-0.025,0-0.051,0-0.076,0l-0.634,0.002C361.904,254.276,365.348,249.147,366.478,243.35
		z M288.9,257.721l5.695-19.877l-30.22-71.07l63.217,85.372c1.556,2.102,3.544,3.974,5.871,5.445L288.9,257.721z"/>
	<path id="XMLID_507_" d="M268.01,331.352H133.089V215.281c0-13.626-11.046-24.673-24.673-24.673H93.881
		c-13.626,0-24.673,11.046-24.673,24.673c0,31.962,0,206.886,0,226.994c0,9.655,7.827,17.482,17.482,17.482h102.51
		c7.243,0,13.737-4.467,16.326-11.232l18.692-48.831c27.922-12.235,47.652-34.093,51.337-59.639
		C276.217,335.473,272.663,331.352,268.01,331.352z"/>
</g>
<g>
</g>
<g>
</g>
<g>
</g>
<g>
</g>
<g>
</g>
<g>
</g>
<g>
</g>
<g>
</g>
<g>
</g>
<g>
</g>
<g>
</g>
<g>
</g>
<g>
</g>
<g>
</g>
<g>
</g>
</svg>
