<?xml version="1.0" encoding="iso-8859-1"?>
<!-- Generator: Adobe Illustrator 18.0.0, SVG Export Plug-In . SVG Version: 6.00 Build 0)  -->
<!DOCTYPE svg PUBLIC "-//W3C//DTD SVG 1.1//EN" "http://www.w3.org/Graphics/SVG/1.1/DTD/svg11.dtd">
<svg version="1.1" id="Capa_1" xmlns="http://www.w3.org/2000/svg" xmlns:xlink="http://www.w3.org/1999/xlink" x="0px" y="0px"
	 viewBox="0 0 473.449 473.449" style="enable-background:new 0 0 473.449 473.449;" xml:space="preserve">
<g id="XMLID_171_">
	<path id="XMLID_183_" d="M335.955,363.823l-32.926-149.422h64.366c6.71,0,12.149-5.439,12.149-12.143V19.344
		c0-6.703-5.439-12.143-12.149-12.143H165.643c-6.71,0-12.149,5.439-12.149,12.143v85.685l8.779-10.257
		c4.167-4.888,9.683-7.891,15.521-9.147V31.486h177.453v158.63H177.793v-26.56l-5.485,6.404c-4.765,5.578-11.522,9.024-18.814,9.715
		v22.583c0,6.704,5.439,12.143,12.149,12.143h65.133l-21.482,97.513c7.938-5.57,17.482-8.886,27.793-9.316l19.412-88.196h20.807
		l34.105,154.83c1.502,6.779,8.305,11.009,14.969,9.562C333.166,377.298,337.442,370.603,335.955,363.823z"/>
	<path id="XMLID_182_" d="M129.423,153.904l11.2,9.599c6.664,5.7,16.561,4.812,22.154-1.709l32.896-38.434
		c5.637-6.588,4.855-16.501-1.732-22.139c-6.588-5.639-16.486-4.873-22.139,1.716l-22.676,26.498l-20.133-17.26
		C129.637,118.803,129.423,146.626,129.423,153.904z"/>
	<path id="XMLID_181_" d="M78.494,77.78c19,0,36.711-15.689,36.711-36.702c0-20.286-16.44-36.718-36.711-36.718
		c-20.285,0-36.709,16.432-36.709,36.718C41.785,62.229,59.664,77.78,78.494,77.78z"/>
	<path id="XMLID_180_" d="M59.925,196.689c6.452-5.791,7.002-15.711,1.212-22.169l-23.273-25.986l28.314-25.341l-14.985,21.396
		l19.305,21.551c10.419,11.621,9.439,29.494-2.189,39.904c-7.938,7.11-18.754,8.779-28.162,5.5l0.153,110.974
		c8.949-11.362,22.385-18.854,37.691-19.811v-53.02h12.563v53.639c10.08,1.839,19.105,6.566,26.292,13.308
		c0-114.766,0.015-128.034,0.015-200.175c0-17.459-14.156-31.608-31.607-31.608h-13.5c-11.396,0-21.311,6.098-26.873,15.153
		l0.369-0.207L5.229,135.61c-6.451,5.746-7.017,15.719-1.227,22.171l33.752,37.682C43.487,201.876,53.399,202.511,59.925,196.689z"
		/>
	<path id="XMLID_179_" d="M331.528,116.459c0-4.336-3.508-7.844-7.846-7.844h-30.273l-20.331-25.924
		c-2.651-3.378-7.509-3.991-10.895-1.425l-23.319,17.55l-21.68-44.508c-1.885-3.907-6.634-5.508-10.479-3.624
		c-3.894,1.9-5.518,6.596-3.617,10.487l25.848,53.066c1.025,2.106,2.941,3.646,5.209,4.198c2.283,0.552,4.674,0.039,6.559-1.363
		l24.773-18.646l17.941,22.875c1.487,1.892,3.77,3.003,6.176,3.003h34.088C328.02,124.303,331.528,120.795,331.528,116.459z"/>
	<path id="XMLID_178_" d="M216.373,144.558c-4.338,0-7.846,3.508-7.846,7.845c0,4.336,3.508,7.845,7.846,7.845h95.435
		c4.336,0,7.844-3.508,7.844-7.845c0-4.336-3.508-7.845-7.844-7.845H216.373z"/>
	<path id="XMLID_177_" d="M356.732,354.637c0,22.353,18.14,40.472,40.493,40.472c22.354,0,40.496-18.118,40.496-40.472
		c0-22.376-18.142-40.486-40.496-40.486C374.871,314.151,356.732,332.261,356.732,354.637z"/>
	<path id="XMLID_176_" d="M447.987,413.264c-3.631-7.905-11.094-10.356-19.795-10.356c-82.23,0-25.588,0-61.931,0
		c-8.671,0-16.179,2.437-19.795,10.356l-21.788,47.733l3.693,8.092c67.522,0,77.373,0,145.078,0L447.987,413.264z"/>
	<path id="XMLID_175_" d="M81.207,314.151c-22.354,0-40.496,18.11-40.496,40.486c0,22.353,18.142,40.472,40.496,40.472
		c22.354,0,40.493-18.118,40.493-40.472C121.7,332.261,103.561,314.151,81.207,314.151z"/>
	<path id="XMLID_174_" d="M112.172,402.908c-82.23,0-25.588,0-61.931,0c-8.702,0-16.163,2.451-19.796,10.356L4.984,469.089
		c51.279,0,88.663,0,145.063,0l3.692-8.105l-21.771-47.72C128.35,405.344,120.842,402.908,112.172,402.908z"/>
	<path id="XMLID_173_" d="M270.195,402.908c-164,0,101.443,0-61.929,0c-8.671,0-16.181,2.437-19.794,10.356l-25.48,55.825
		c67.629,0,78.813,0,152.463,0l-25.463-55.825C286.36,405.359,278.9,402.908,270.195,402.908z"/>
	<path id="XMLID_172_" d="M239.232,395.109c22.353,0,40.495-18.118,40.495-40.472c0-22.376-18.143-40.486-40.495-40.486
		c-22.354,0-40.495,18.11-40.495,40.486C198.737,376.991,216.877,395.109,239.232,395.109z"/>
</g>
<g>
</g>
<g>
</g>
<g>
</g>
<g>
</g>
<g>
</g>
<g>
</g>
<g>
</g>
<g>
</g>
<g>
</g>
<g>
</g>
<g>
</g>
<g>
</g>
<g>
</g>
<g>
</g>
<g>
</g>
</svg>
